G04 Layer_Physical_Order=2*
G04 Layer_Color=16711680*
%FSLAX24Y24*%
%MOIN*%
G70*
G01*
G75*
%ADD10C,0.2362*%
%ADD11C,0.0669*%
%ADD12C,0.0600*%
%ADD13C,0.0551*%
%ADD14C,0.0157*%
%ADD15C,0.0315*%
%ADD16C,0.0320*%
G36*
X-36500Y40200D02*
X-37401D01*
X-37411Y40249D01*
X-37371Y40266D01*
X-37186Y40379D01*
X-37020Y40520D01*
X-36879Y40686D01*
X-36766Y40871D01*
X-36682Y41072D01*
X-36632Y41283D01*
X-36615Y41500D01*
X-36632Y41717D01*
X-36682Y41928D01*
X-36766Y42129D01*
X-36879Y42314D01*
X-37020Y42480D01*
X-37186Y42621D01*
X-37371Y42734D01*
X-37572Y42818D01*
X-37783Y42868D01*
X-38000Y42885D01*
X-38217Y42868D01*
X-38428Y42818D01*
X-38629Y42734D01*
X-38814Y42621D01*
X-38980Y42480D01*
X-39121Y42314D01*
X-39234Y42129D01*
X-39318Y41928D01*
X-39368Y41717D01*
X-39385Y41500D01*
X-39368Y41283D01*
X-39318Y41072D01*
X-39234Y40871D01*
X-39121Y40686D01*
X-38980Y40520D01*
X-38814Y40379D01*
X-38629Y40266D01*
X-38589Y40249D01*
X-38599Y40200D01*
X-48901D01*
X-48911Y40249D01*
X-48871Y40266D01*
X-48686Y40379D01*
X-48520Y40520D01*
X-48379Y40686D01*
X-48266Y40871D01*
X-48182Y41072D01*
X-48132Y41283D01*
X-48115Y41500D01*
X-48132Y41717D01*
X-48182Y41928D01*
X-48266Y42129D01*
X-48379Y42314D01*
X-48520Y42480D01*
X-48686Y42621D01*
X-48871Y42734D01*
X-49072Y42818D01*
X-49283Y42868D01*
X-49500Y42885D01*
X-49717Y42868D01*
X-49928Y42818D01*
X-50129Y42734D01*
X-50314Y42621D01*
X-50480Y42480D01*
X-50621Y42314D01*
X-50734Y42129D01*
X-50818Y41928D01*
X-50868Y41717D01*
X-50885Y41500D01*
X-50868Y41283D01*
X-50818Y41072D01*
X-50734Y40871D01*
X-50621Y40686D01*
X-50480Y40520D01*
X-50314Y40379D01*
X-50129Y40266D01*
X-50089Y40249D01*
X-50099Y40200D01*
X-51200D01*
Y58900D01*
X-49799D01*
X-49793Y58850D01*
X-49928Y58818D01*
X-50129Y58734D01*
X-50314Y58621D01*
X-50480Y58480D01*
X-50621Y58314D01*
X-50734Y58129D01*
X-50818Y57928D01*
X-50868Y57717D01*
X-50885Y57500D01*
X-50868Y57283D01*
X-50818Y57072D01*
X-50734Y56871D01*
X-50621Y56686D01*
X-50480Y56520D01*
X-50314Y56379D01*
X-50129Y56266D01*
X-49928Y56182D01*
X-49717Y56132D01*
X-49500Y56115D01*
X-49283Y56132D01*
X-49072Y56182D01*
X-48871Y56266D01*
X-48686Y56379D01*
X-48520Y56520D01*
X-48379Y56686D01*
X-48266Y56871D01*
X-48182Y57072D01*
X-48132Y57283D01*
X-48115Y57500D01*
X-48132Y57717D01*
X-48182Y57928D01*
X-48266Y58129D01*
X-48379Y58314D01*
X-48520Y58480D01*
X-48686Y58621D01*
X-48871Y58734D01*
X-49072Y58818D01*
X-49207Y58850D01*
X-49201Y58900D01*
X-38299D01*
X-38293Y58850D01*
X-38428Y58818D01*
X-38629Y58734D01*
X-38814Y58621D01*
X-38980Y58480D01*
X-39121Y58314D01*
X-39234Y58129D01*
X-39318Y57928D01*
X-39368Y57717D01*
X-39385Y57500D01*
X-39368Y57283D01*
X-39318Y57072D01*
X-39234Y56871D01*
X-39121Y56686D01*
X-38980Y56520D01*
X-38814Y56379D01*
X-38629Y56266D01*
X-38428Y56182D01*
X-38217Y56132D01*
X-38000Y56115D01*
X-37783Y56132D01*
X-37572Y56182D01*
X-37371Y56266D01*
X-37186Y56379D01*
X-37020Y56520D01*
X-36879Y56686D01*
X-36766Y56871D01*
X-36682Y57072D01*
X-36632Y57283D01*
X-36615Y57500D01*
X-36632Y57717D01*
X-36682Y57928D01*
X-36766Y58129D01*
X-36879Y58314D01*
X-37020Y58480D01*
X-37186Y58621D01*
X-37371Y58734D01*
X-37572Y58818D01*
X-37707Y58850D01*
X-37701Y58900D01*
X-36500D01*
Y40200D01*
D02*
G37*
%LPC*%
G36*
X-40900Y56739D02*
X-41040Y56721D01*
X-41170Y56667D01*
X-41281Y56581D01*
X-41367Y56470D01*
X-41421Y56340D01*
X-41439Y56200D01*
X-41421Y56060D01*
X-41367Y55930D01*
X-41281Y55819D01*
X-41170Y55733D01*
X-41040Y55679D01*
X-41007Y55675D01*
Y55624D01*
X-41013Y55623D01*
X-41119Y55580D01*
X-41210Y55510D01*
X-41280Y55419D01*
X-41321Y55320D01*
X-40900D01*
Y55080D01*
X-41321D01*
X-41280Y54981D01*
X-41210Y54890D01*
X-41119Y54820D01*
X-41013Y54777D01*
X-41007Y54776D01*
Y54725D01*
X-41040Y54721D01*
X-41170Y54667D01*
X-41281Y54581D01*
X-41367Y54470D01*
X-41421Y54340D01*
X-41439Y54200D01*
X-41421Y54060D01*
X-41367Y53930D01*
X-41281Y53819D01*
X-41192Y53750D01*
X-41184Y53693D01*
X-41187Y53686D01*
X-41200Y53673D01*
X-41760D01*
X-41854Y53661D01*
X-41942Y53624D01*
X-42017Y53567D01*
X-42017Y53567D01*
X-43037Y52547D01*
X-45445Y54955D01*
X-45520Y55012D01*
X-45607Y55048D01*
X-45700Y55061D01*
X-46300D01*
X-46329Y55057D01*
X-46374Y55101D01*
X-46361Y55200D01*
X-46379Y55340D01*
X-46433Y55470D01*
X-46519Y55581D01*
X-46630Y55667D01*
X-46650Y55675D01*
Y55725D01*
X-46630Y55733D01*
X-46519Y55819D01*
X-46433Y55930D01*
X-46379Y56060D01*
X-46361Y56200D01*
X-46379Y56340D01*
X-46433Y56470D01*
X-46519Y56581D01*
X-46630Y56667D01*
X-46760Y56721D01*
X-46900Y56739D01*
X-47040Y56721D01*
X-47170Y56667D01*
X-47281Y56581D01*
X-47367Y56470D01*
X-47421Y56340D01*
X-47439Y56200D01*
X-47421Y56060D01*
X-47367Y55930D01*
X-47281Y55819D01*
X-47170Y55733D01*
X-47150Y55725D01*
Y55675D01*
X-47170Y55667D01*
X-47281Y55581D01*
X-47367Y55470D01*
X-47421Y55340D01*
X-47439Y55200D01*
X-47421Y55060D01*
X-47412Y55040D01*
X-47424Y55012D01*
X-47499Y54955D01*
X-47593Y54861D01*
X-49289D01*
X-49388Y54937D01*
X-49509Y54987D01*
X-49640Y55004D01*
X-49771Y54987D01*
X-49892Y54937D01*
X-49997Y54857D01*
X-50077Y54752D01*
X-50127Y54631D01*
X-50144Y54500D01*
X-50127Y54369D01*
X-50077Y54248D01*
X-49997Y54143D01*
X-49892Y54063D01*
X-49805Y54027D01*
Y53973D01*
X-49892Y53937D01*
X-49997Y53857D01*
X-50077Y53752D01*
X-50127Y53631D01*
X-50143Y53511D01*
X-50657Y52997D01*
X-50714Y52922D01*
X-50751Y52834D01*
X-50763Y52740D01*
Y46530D01*
X-50751Y46436D01*
X-50714Y46348D01*
X-50657Y46273D01*
X-50337Y45953D01*
X-50337Y45953D01*
X-50262Y45896D01*
X-50174Y45859D01*
X-50080Y45847D01*
X-49978D01*
X-49910Y45795D01*
X-49794Y45747D01*
X-49670Y45730D01*
X-49546Y45747D01*
X-49430Y45795D01*
X-49331Y45871D01*
X-49255Y45970D01*
X-49207Y46086D01*
X-49195Y46171D01*
X-48530Y46837D01*
X-47295D01*
X-47281Y46819D01*
X-47170Y46733D01*
X-47150Y46725D01*
Y46675D01*
X-47170Y46667D01*
X-47281Y46581D01*
X-47367Y46470D01*
X-47421Y46340D01*
X-47439Y46200D01*
X-47421Y46060D01*
X-47367Y45930D01*
X-47281Y45819D01*
X-47170Y45733D01*
X-47150Y45725D01*
Y45675D01*
X-47170Y45667D01*
X-47281Y45581D01*
X-47367Y45470D01*
X-47421Y45340D01*
X-47439Y45200D01*
X-47421Y45060D01*
X-47367Y44930D01*
X-47281Y44819D01*
X-47170Y44733D01*
X-47150Y44725D01*
Y44675D01*
X-47170Y44667D01*
X-47281Y44581D01*
X-47367Y44470D01*
X-47421Y44340D01*
X-47439Y44200D01*
X-47421Y44060D01*
X-47367Y43930D01*
X-47281Y43819D01*
X-47170Y43733D01*
X-47150Y43725D01*
Y43675D01*
X-47170Y43667D01*
X-47281Y43581D01*
X-47367Y43470D01*
X-47421Y43340D01*
X-47439Y43200D01*
X-47421Y43060D01*
X-47367Y42930D01*
X-47281Y42819D01*
X-47170Y42733D01*
X-47150Y42725D01*
Y42675D01*
X-47170Y42667D01*
X-47281Y42581D01*
X-47367Y42470D01*
X-47421Y42340D01*
X-47439Y42200D01*
X-47421Y42060D01*
X-47367Y41930D01*
X-47281Y41819D01*
X-47170Y41733D01*
X-47040Y41679D01*
X-46900Y41661D01*
X-46760Y41679D01*
X-46630Y41733D01*
X-46519Y41819D01*
X-46433Y41930D01*
X-46379Y42060D01*
X-46361Y42200D01*
X-46379Y42340D01*
X-46433Y42470D01*
X-46519Y42581D01*
X-46630Y42667D01*
X-46650Y42675D01*
Y42725D01*
X-46630Y42733D01*
X-46519Y42819D01*
X-46433Y42930D01*
X-46379Y43060D01*
X-46361Y43200D01*
X-46379Y43340D01*
X-46433Y43470D01*
X-46519Y43581D01*
X-46630Y43667D01*
X-46650Y43675D01*
Y43725D01*
X-46630Y43733D01*
X-46519Y43819D01*
X-46433Y43930D01*
X-46379Y44060D01*
X-46361Y44200D01*
X-46379Y44340D01*
X-46433Y44470D01*
X-46519Y44581D01*
X-46630Y44667D01*
X-46650Y44675D01*
Y44725D01*
X-46630Y44733D01*
X-46519Y44819D01*
X-46433Y44930D01*
X-46379Y45060D01*
X-46361Y45200D01*
X-46379Y45340D01*
X-46433Y45470D01*
X-46519Y45581D01*
X-46630Y45667D01*
X-46650Y45675D01*
Y45725D01*
X-46630Y45733D01*
X-46519Y45819D01*
X-46433Y45930D01*
X-46379Y46060D01*
X-46361Y46200D01*
X-46379Y46340D01*
X-46433Y46470D01*
X-46519Y46581D01*
X-46630Y46667D01*
X-46650Y46675D01*
Y46725D01*
X-46630Y46733D01*
X-46519Y46819D01*
X-46433Y46930D01*
X-46379Y47060D01*
X-46361Y47200D01*
X-46379Y47340D01*
X-46433Y47470D01*
X-46519Y47581D01*
X-46630Y47667D01*
X-46650Y47675D01*
Y47725D01*
X-46630Y47733D01*
X-46519Y47819D01*
X-46433Y47930D01*
X-46379Y48060D01*
X-46361Y48200D01*
X-46379Y48340D01*
X-46433Y48470D01*
X-46519Y48581D01*
X-46630Y48667D01*
X-46650Y48675D01*
Y48725D01*
X-46630Y48733D01*
X-46519Y48819D01*
X-46433Y48930D01*
X-46379Y49060D01*
X-46361Y49200D01*
X-46379Y49340D01*
X-46433Y49470D01*
X-46519Y49581D01*
X-46630Y49667D01*
X-46650Y49675D01*
Y49725D01*
X-46630Y49733D01*
X-46519Y49819D01*
X-46433Y49930D01*
X-46379Y50060D01*
X-46361Y50200D01*
X-46374Y50299D01*
X-46341Y50337D01*
X-44370D01*
X-44276Y50349D01*
X-44188Y50386D01*
X-44113Y50443D01*
X-41610Y52947D01*
X-41374D01*
X-41367Y52930D01*
X-41281Y52819D01*
X-41170Y52733D01*
X-41150Y52725D01*
Y52675D01*
X-41170Y52667D01*
X-41281Y52581D01*
X-41367Y52470D01*
X-41421Y52340D01*
X-41439Y52200D01*
X-41421Y52060D01*
X-41367Y51930D01*
X-41281Y51819D01*
X-41170Y51733D01*
X-41150Y51725D01*
Y51675D01*
X-41170Y51667D01*
X-41281Y51581D01*
X-41367Y51470D01*
X-41421Y51340D01*
X-41439Y51200D01*
X-41421Y51060D01*
X-41367Y50930D01*
X-41281Y50819D01*
X-41170Y50733D01*
X-41150Y50725D01*
Y50675D01*
X-41170Y50667D01*
X-41281Y50581D01*
X-41367Y50470D01*
X-41421Y50340D01*
X-41439Y50200D01*
X-41421Y50060D01*
X-41367Y49930D01*
X-41281Y49819D01*
X-41170Y49733D01*
X-41150Y49725D01*
Y49675D01*
X-41170Y49667D01*
X-41281Y49581D01*
X-41367Y49470D01*
X-41421Y49340D01*
X-41439Y49200D01*
X-41421Y49060D01*
X-41367Y48930D01*
X-41281Y48819D01*
X-41170Y48733D01*
X-41150Y48725D01*
Y48675D01*
X-41170Y48667D01*
X-41281Y48581D01*
X-41367Y48470D01*
X-41421Y48340D01*
X-41439Y48200D01*
X-41421Y48060D01*
X-41367Y47930D01*
X-41281Y47819D01*
X-41170Y47733D01*
X-41150Y47725D01*
Y47675D01*
X-41170Y47667D01*
X-41281Y47581D01*
X-41367Y47470D01*
X-41421Y47340D01*
X-41439Y47200D01*
X-41421Y47060D01*
X-41367Y46930D01*
X-41281Y46819D01*
X-41170Y46733D01*
X-41150Y46725D01*
Y46675D01*
X-41170Y46667D01*
X-41281Y46581D01*
X-41367Y46470D01*
X-41421Y46340D01*
X-41439Y46200D01*
X-41421Y46060D01*
X-41367Y45930D01*
X-41281Y45819D01*
X-41170Y45733D01*
X-41150Y45725D01*
Y45675D01*
X-41170Y45667D01*
X-41281Y45581D01*
X-41367Y45470D01*
X-41421Y45340D01*
X-41439Y45200D01*
X-41421Y45060D01*
X-41367Y44930D01*
X-41281Y44819D01*
X-41170Y44733D01*
X-41150Y44725D01*
Y44675D01*
X-41170Y44667D01*
X-41281Y44581D01*
X-41367Y44470D01*
X-41421Y44340D01*
X-41439Y44200D01*
X-41421Y44060D01*
X-41367Y43930D01*
X-41281Y43819D01*
X-41170Y43733D01*
X-41150Y43725D01*
Y43675D01*
X-41170Y43667D01*
X-41281Y43581D01*
X-41367Y43470D01*
X-41421Y43340D01*
X-41439Y43200D01*
X-41421Y43060D01*
X-41367Y42930D01*
X-41281Y42819D01*
X-41170Y42733D01*
X-41150Y42725D01*
Y42675D01*
X-41170Y42667D01*
X-41281Y42581D01*
X-41367Y42470D01*
X-41421Y42340D01*
X-41439Y42200D01*
X-41421Y42060D01*
X-41367Y41930D01*
X-41281Y41819D01*
X-41170Y41733D01*
X-41040Y41679D01*
X-40900Y41661D01*
X-40760Y41679D01*
X-40630Y41733D01*
X-40519Y41819D01*
X-40433Y41930D01*
X-40379Y42060D01*
X-40361Y42200D01*
X-40379Y42340D01*
X-40433Y42470D01*
X-40519Y42581D01*
X-40630Y42667D01*
X-40650Y42675D01*
Y42725D01*
X-40630Y42733D01*
X-40519Y42819D01*
X-40433Y42930D01*
X-40379Y43060D01*
X-40361Y43200D01*
X-40379Y43340D01*
X-40433Y43470D01*
X-40519Y43581D01*
X-40630Y43667D01*
X-40650Y43675D01*
Y43725D01*
X-40630Y43733D01*
X-40519Y43819D01*
X-40433Y43930D01*
X-40379Y44060D01*
X-40361Y44200D01*
X-40379Y44340D01*
X-40433Y44470D01*
X-40519Y44581D01*
X-40630Y44667D01*
X-40650Y44675D01*
Y44725D01*
X-40630Y44733D01*
X-40519Y44819D01*
X-40433Y44930D01*
X-40379Y45060D01*
X-40361Y45200D01*
X-40379Y45340D01*
X-40433Y45470D01*
X-40519Y45581D01*
X-40630Y45667D01*
X-40650Y45675D01*
Y45725D01*
X-40630Y45733D01*
X-40519Y45819D01*
X-40433Y45930D01*
X-40379Y46060D01*
X-40361Y46200D01*
X-40379Y46340D01*
X-40433Y46470D01*
X-40519Y46581D01*
X-40630Y46667D01*
X-40650Y46675D01*
Y46725D01*
X-40630Y46733D01*
X-40519Y46819D01*
X-40433Y46930D01*
X-40379Y47060D01*
X-40361Y47200D01*
X-40379Y47340D01*
X-40433Y47470D01*
X-40519Y47581D01*
X-40630Y47667D01*
X-40650Y47675D01*
Y47725D01*
X-40630Y47733D01*
X-40519Y47819D01*
X-40433Y47930D01*
X-40379Y48060D01*
X-40361Y48200D01*
X-40379Y48340D01*
X-40433Y48470D01*
X-40519Y48581D01*
X-40630Y48667D01*
X-40650Y48675D01*
Y48725D01*
X-40630Y48733D01*
X-40519Y48819D01*
X-40433Y48930D01*
X-40379Y49060D01*
X-40361Y49200D01*
X-40379Y49340D01*
X-40433Y49470D01*
X-40519Y49581D01*
X-40630Y49667D01*
X-40650Y49675D01*
Y49725D01*
X-40630Y49733D01*
X-40519Y49819D01*
X-40433Y49930D01*
X-40379Y50060D01*
X-40361Y50200D01*
X-40379Y50340D01*
X-40433Y50470D01*
X-40519Y50581D01*
X-40630Y50667D01*
X-40650Y50675D01*
Y50725D01*
X-40630Y50733D01*
X-40519Y50819D01*
X-40433Y50930D01*
X-40379Y51060D01*
X-40361Y51200D01*
X-40379Y51340D01*
X-40433Y51470D01*
X-40519Y51581D01*
X-40630Y51667D01*
X-40650Y51675D01*
Y51725D01*
X-40630Y51733D01*
X-40519Y51819D01*
X-40433Y51930D01*
X-40379Y52060D01*
X-40361Y52200D01*
X-40372Y52286D01*
X-40329Y52340D01*
X-40315Y52342D01*
X-39523Y51550D01*
Y48814D01*
X-39529Y48809D01*
X-39605Y48710D01*
X-39653Y48594D01*
X-39670Y48470D01*
X-39653Y48346D01*
X-39605Y48230D01*
X-39529Y48131D01*
X-39430Y48055D01*
X-39314Y48007D01*
X-39190Y47990D01*
X-39066Y48007D01*
X-38950Y48055D01*
X-38851Y48131D01*
X-38775Y48230D01*
X-38727Y48346D01*
X-38710Y48470D01*
X-38727Y48594D01*
X-38775Y48710D01*
X-38797Y48739D01*
Y51337D01*
X-37900D01*
X-37806Y51349D01*
X-37718Y51386D01*
X-37705Y51396D01*
X-37661Y51373D01*
Y47509D01*
X-39225Y45945D01*
X-39314Y45933D01*
X-39430Y45885D01*
X-39529Y45809D01*
X-39605Y45710D01*
X-39653Y45594D01*
X-39670Y45470D01*
X-39653Y45346D01*
X-39605Y45230D01*
X-39529Y45131D01*
X-39430Y45055D01*
X-39314Y45007D01*
X-39190Y44990D01*
X-39066Y45007D01*
X-38950Y45055D01*
X-38851Y45131D01*
X-38775Y45230D01*
X-38727Y45346D01*
X-38715Y45435D01*
X-37045Y47105D01*
X-36988Y47180D01*
X-36952Y47267D01*
X-36939Y47360D01*
Y54400D01*
X-36952Y54493D01*
X-36988Y54580D01*
X-37045Y54655D01*
X-37120Y54712D01*
X-37207Y54748D01*
X-37300Y54761D01*
X-38179D01*
X-38278Y54837D01*
X-38400Y54887D01*
X-38530Y54904D01*
X-38661Y54887D01*
X-38782Y54837D01*
X-38887Y54757D01*
X-38967Y54652D01*
X-39017Y54531D01*
X-39035Y54400D01*
X-39017Y54269D01*
X-38967Y54148D01*
X-38887Y54043D01*
X-38782Y53963D01*
X-38695Y53927D01*
Y53873D01*
X-38782Y53837D01*
X-38887Y53757D01*
X-38967Y53652D01*
X-39017Y53531D01*
X-39026Y53469D01*
X-39073Y53453D01*
X-39239Y53619D01*
Y54140D01*
X-39252Y54233D01*
X-39288Y54320D01*
X-39345Y54395D01*
X-40515Y55565D01*
X-40590Y55622D01*
X-40677Y55658D01*
X-40679Y55659D01*
X-40686Y55710D01*
X-40630Y55733D01*
X-40519Y55819D01*
X-40433Y55930D01*
X-40379Y56060D01*
X-40361Y56200D01*
X-40379Y56340D01*
X-40433Y56470D01*
X-40519Y56581D01*
X-40630Y56667D01*
X-40760Y56721D01*
X-40900Y56739D01*
D02*
G37*
%LPD*%
G36*
X-39961Y53991D02*
Y53470D01*
X-39948Y53376D01*
X-39912Y53289D01*
X-39855Y53215D01*
X-38909Y52269D01*
X-38880Y52198D01*
X-38816Y52115D01*
X-38810Y52110D01*
X-38826Y52063D01*
X-39010D01*
X-40489Y53542D01*
X-40519Y53581D01*
X-40630Y53667D01*
X-40650Y53675D01*
Y53725D01*
X-40630Y53733D01*
X-40519Y53819D01*
X-40433Y53930D01*
X-40379Y54060D01*
X-40361Y54200D01*
X-40379Y54338D01*
X-40377Y54341D01*
X-40336Y54366D01*
X-39961Y53991D01*
D02*
G37*
G36*
X-46300Y54339D02*
X-45849D01*
X-43572Y52062D01*
Y52012D01*
X-44520Y51063D01*
X-46341D01*
X-46374Y51101D01*
X-46361Y51200D01*
X-46379Y51340D01*
X-46433Y51470D01*
X-46519Y51581D01*
X-46630Y51667D01*
X-46650Y51675D01*
Y51725D01*
X-46630Y51733D01*
X-46519Y51819D01*
X-46433Y51930D01*
X-46379Y52060D01*
X-46361Y52200D01*
X-46379Y52340D01*
X-46433Y52470D01*
X-46519Y52581D01*
X-46630Y52667D01*
X-46760Y52721D01*
X-46793Y52725D01*
Y52725D01*
X-46900Y52739D01*
X-47007Y52725D01*
Y52725D01*
X-47040Y52721D01*
X-47170Y52667D01*
X-47281Y52581D01*
X-47367Y52470D01*
X-47421Y52340D01*
X-47439Y52200D01*
X-47421Y52060D01*
X-47367Y51930D01*
X-47281Y51819D01*
X-47170Y51733D01*
X-47150Y51725D01*
Y51675D01*
X-47170Y51667D01*
X-47281Y51581D01*
X-47367Y51470D01*
X-47421Y51340D01*
X-47439Y51200D01*
X-47426Y51098D01*
X-47459Y51061D01*
X-47520D01*
X-47613Y51048D01*
X-47700Y51012D01*
X-47775Y50955D01*
X-49159Y49571D01*
X-49359D01*
X-49430Y49625D01*
X-49546Y49673D01*
X-49670Y49690D01*
X-49794Y49673D01*
X-49910Y49625D01*
X-49987Y49566D01*
X-50037Y49591D01*
Y51268D01*
X-49992Y51295D01*
X-49987Y51295D01*
X-49925Y51215D01*
X-49842Y51151D01*
X-49760Y51117D01*
Y51500D01*
X-49520D01*
Y51117D01*
X-49438Y51151D01*
X-49355Y51215D01*
X-49291Y51298D01*
X-49264Y51362D01*
X-47790Y52837D01*
X-47141D01*
X-47119Y52820D01*
X-47020Y52779D01*
Y53200D01*
Y53621D01*
X-47119Y53580D01*
X-47141Y53563D01*
X-47940D01*
X-48034Y53551D01*
X-48122Y53514D01*
X-48197Y53457D01*
X-49098Y52556D01*
X-49145Y52572D01*
X-49153Y52631D01*
X-49203Y52752D01*
X-49283Y52857D01*
X-49388Y52937D01*
X-49475Y52973D01*
Y53027D01*
X-49388Y53063D01*
X-49283Y53143D01*
X-49203Y53248D01*
X-49153Y53369D01*
X-49136Y53500D01*
X-49153Y53631D01*
X-49203Y53752D01*
X-49283Y53857D01*
X-49388Y53937D01*
X-49475Y53973D01*
Y54027D01*
X-49388Y54063D01*
X-49289Y54139D01*
X-47444D01*
X-47432Y54141D01*
X-47421Y54060D01*
X-47367Y53930D01*
X-47281Y53819D01*
X-47170Y53733D01*
X-47040Y53679D01*
X-47007Y53675D01*
Y53675D01*
X-46900Y53661D01*
X-46793Y53675D01*
Y53675D01*
X-46760Y53679D01*
X-46630Y53733D01*
X-46519Y53819D01*
X-46433Y53930D01*
X-46379Y54060D01*
X-46361Y54200D01*
X-46374Y54299D01*
X-46329Y54343D01*
X-46300Y54339D01*
D02*
G37*
G36*
X-47439Y50204D02*
X-47439Y50200D01*
X-47421Y50060D01*
X-47367Y49930D01*
X-47281Y49819D01*
X-47170Y49733D01*
X-47150Y49725D01*
Y49675D01*
X-47170Y49667D01*
X-47281Y49581D01*
X-47367Y49470D01*
X-47421Y49340D01*
X-47439Y49200D01*
X-47421Y49060D01*
X-47367Y48930D01*
X-47281Y48819D01*
X-47170Y48733D01*
X-47150Y48725D01*
Y48675D01*
X-47170Y48667D01*
X-47281Y48581D01*
X-47367Y48470D01*
X-47421Y48340D01*
X-47439Y48200D01*
X-47421Y48060D01*
X-47367Y47930D01*
X-47281Y47819D01*
X-47170Y47733D01*
X-47150Y47725D01*
Y47675D01*
X-47170Y47667D01*
X-47281Y47581D01*
X-47295Y47563D01*
X-48680D01*
X-48774Y47551D01*
X-48862Y47514D01*
X-48937Y47457D01*
X-48937Y47457D01*
X-49709Y46685D01*
X-49794Y46673D01*
X-49910Y46625D01*
X-49951Y46594D01*
X-50037Y46680D01*
Y48829D01*
X-49987Y48854D01*
X-49910Y48795D01*
X-49794Y48747D01*
X-49670Y48730D01*
X-49546Y48747D01*
X-49430Y48795D01*
X-49359Y48849D01*
X-49010D01*
X-48917Y48862D01*
X-48830Y48898D01*
X-48755Y48955D01*
X-47484Y50227D01*
X-47439Y50204D01*
D02*
G37*
%LPC*%
G36*
X-46780Y53621D02*
Y53320D01*
X-46479D01*
X-46520Y53419D01*
X-46590Y53510D01*
X-46681Y53580D01*
X-46780Y53621D01*
D02*
G37*
G36*
X-46479Y53080D02*
X-46780D01*
Y52779D01*
X-46681Y52820D01*
X-46590Y52890D01*
X-46520Y52981D01*
X-46479Y53080D01*
D02*
G37*
%LPD*%
G54D10*
X-49500Y41500D02*
D03*
X-38000D02*
D03*
Y57500D02*
D03*
X-49500D02*
D03*
G54D11*
X-46900Y56200D02*
D03*
X-40900D02*
D03*
X-46900Y55200D02*
D03*
Y54200D02*
D03*
Y50200D02*
D03*
Y53200D02*
D03*
Y52200D02*
D03*
Y51200D02*
D03*
Y49200D02*
D03*
Y48200D02*
D03*
Y47200D02*
D03*
Y46200D02*
D03*
Y45200D02*
D03*
Y44200D02*
D03*
Y43200D02*
D03*
Y42200D02*
D03*
X-40900D02*
D03*
Y43200D02*
D03*
Y44200D02*
D03*
Y45200D02*
D03*
Y46200D02*
D03*
Y47200D02*
D03*
Y48200D02*
D03*
Y49200D02*
D03*
Y50200D02*
D03*
Y51200D02*
D03*
Y52200D02*
D03*
Y53200D02*
D03*
Y54200D02*
D03*
Y55200D02*
D03*
G54D12*
X-49640Y51500D02*
D03*
Y52500D02*
D03*
Y53500D02*
D03*
Y54500D02*
D03*
X-38530Y52400D02*
D03*
Y53400D02*
D03*
Y54400D02*
D03*
G54D13*
X-49670Y49210D02*
D03*
Y46210D02*
D03*
X-39190Y45470D02*
D03*
Y48470D02*
D03*
G54D14*
X-47244Y54700D02*
X-46300D01*
X-47260Y50700D02*
X-46600D01*
G54D15*
X-47444Y54500D02*
X-47244Y54700D01*
X-45700D02*
X-43070Y52070D01*
X-46300Y54700D02*
X-45700D01*
X-49640Y54500D02*
X-47444D01*
X-47520Y50700D02*
X-47260D01*
X-49010Y49210D02*
X-47520Y50700D01*
X-49670Y49210D02*
X-49010D01*
X-40770Y55310D02*
X-39600Y54140D01*
Y53470D02*
Y54140D01*
Y53470D02*
X-38530Y52400D01*
X-39190Y45470D02*
X-37300Y47360D01*
X-38530Y54400D02*
X-37300D01*
Y47360D02*
Y54400D01*
G54D16*
X-46600Y50700D02*
X-44370D01*
X-41760Y53310D01*
X-48680Y47200D02*
X-46900D01*
X-47940Y53200D02*
X-47000D01*
X-49640Y51500D02*
X-47940Y53200D01*
X-50080Y46210D02*
X-49670D01*
X-41760Y53310D02*
X-40770D01*
X-49670Y46210D02*
X-48680Y47200D01*
X-50400Y46530D02*
X-50080Y46210D01*
X-50400Y46530D02*
Y52740D01*
X-49640Y53500D01*
X-40770Y53310D02*
X-39160Y51700D01*
X-37900D01*
Y53400D01*
X-38530D02*
X-37900D01*
X-39160Y48500D02*
Y51700D01*
X-39190Y48470D02*
X-39160Y48500D01*
M02*
