M48
;Layer_Color=9474304
;FILE_FORMAT=2:4
INCH,TZ
;TYPE=PLATED
T1F00S00C0.0300
T2F00S00C0.0335
T3F00S00C0.0409
T4F00S00C0.1260
%
T01
X-49640Y51500
Y52500
Y53500
Y54500
X-38530Y54400
Y53400
Y52400
T02
X-39190Y45470
X-49670Y46210
Y49210
X-39190Y48470
T03
X-40900Y42200
Y43200
Y44200
Y45200
X-46900
Y44200
Y43200
Y42200
Y46200
Y47200
Y48200
Y49200
Y50200
Y51200
Y52200
Y53200
Y54200
Y55200
Y56200
X-40900
Y55200
Y54200
Y53200
Y52200
Y51200
Y50200
Y49200
Y48200
Y47200
Y46200
T04
X-38000Y41500
X-49500
Y57500
X-38000
M30
