G04 Layer_Physical_Order=1*
G04 Layer_Color=255*
%FSLAX24Y24*%
%MOIN*%
G70*
G01*
G75*
%ADD10C,0.2362*%
%ADD11C,0.0669*%
%ADD12C,0.0600*%
%ADD13C,0.0551*%
G36*
X-36500Y40200D02*
X-37401D01*
X-37411Y40249D01*
X-37371Y40266D01*
X-37186Y40379D01*
X-37020Y40520D01*
X-36879Y40686D01*
X-36766Y40871D01*
X-36682Y41072D01*
X-36632Y41283D01*
X-36615Y41500D01*
X-36632Y41717D01*
X-36682Y41928D01*
X-36766Y42129D01*
X-36879Y42314D01*
X-37020Y42480D01*
X-37186Y42621D01*
X-37371Y42734D01*
X-37572Y42818D01*
X-37783Y42868D01*
X-38000Y42885D01*
X-38217Y42868D01*
X-38428Y42818D01*
X-38629Y42734D01*
X-38814Y42621D01*
X-38980Y42480D01*
X-39121Y42314D01*
X-39234Y42129D01*
X-39318Y41928D01*
X-39368Y41717D01*
X-39385Y41500D01*
X-39368Y41283D01*
X-39318Y41072D01*
X-39234Y40871D01*
X-39121Y40686D01*
X-38980Y40520D01*
X-38814Y40379D01*
X-38629Y40266D01*
X-38589Y40249D01*
X-38599Y40200D01*
X-48901D01*
X-48911Y40249D01*
X-48871Y40266D01*
X-48686Y40379D01*
X-48520Y40520D01*
X-48379Y40686D01*
X-48266Y40871D01*
X-48182Y41072D01*
X-48132Y41283D01*
X-48115Y41500D01*
X-48132Y41717D01*
X-48182Y41928D01*
X-48266Y42129D01*
X-48379Y42314D01*
X-48520Y42480D01*
X-48686Y42621D01*
X-48871Y42734D01*
X-49072Y42818D01*
X-49283Y42868D01*
X-49500Y42885D01*
X-49717Y42868D01*
X-49928Y42818D01*
X-50129Y42734D01*
X-50314Y42621D01*
X-50480Y42480D01*
X-50621Y42314D01*
X-50734Y42129D01*
X-50818Y41928D01*
X-50868Y41717D01*
X-50885Y41500D01*
X-50868Y41283D01*
X-50818Y41072D01*
X-50734Y40871D01*
X-50621Y40686D01*
X-50480Y40520D01*
X-50314Y40379D01*
X-50129Y40266D01*
X-50089Y40249D01*
X-50099Y40200D01*
X-51200D01*
Y58900D01*
X-49799D01*
X-49793Y58850D01*
X-49928Y58818D01*
X-50129Y58734D01*
X-50314Y58621D01*
X-50480Y58480D01*
X-50621Y58314D01*
X-50734Y58129D01*
X-50818Y57928D01*
X-50868Y57717D01*
X-50885Y57500D01*
X-50868Y57283D01*
X-50818Y57072D01*
X-50734Y56871D01*
X-50621Y56686D01*
X-50480Y56520D01*
X-50314Y56379D01*
X-50129Y56266D01*
X-49928Y56182D01*
X-49717Y56132D01*
X-49500Y56115D01*
X-49283Y56132D01*
X-49072Y56182D01*
X-48871Y56266D01*
X-48686Y56379D01*
X-48520Y56520D01*
X-48379Y56686D01*
X-48266Y56871D01*
X-48182Y57072D01*
X-48132Y57283D01*
X-48115Y57500D01*
X-48132Y57717D01*
X-48182Y57928D01*
X-48266Y58129D01*
X-48379Y58314D01*
X-48520Y58480D01*
X-48686Y58621D01*
X-48871Y58734D01*
X-49072Y58818D01*
X-49207Y58850D01*
X-49201Y58900D01*
X-38299D01*
X-38293Y58850D01*
X-38428Y58818D01*
X-38629Y58734D01*
X-38814Y58621D01*
X-38980Y58480D01*
X-39121Y58314D01*
X-39234Y58129D01*
X-39318Y57928D01*
X-39368Y57717D01*
X-39385Y57500D01*
X-39368Y57283D01*
X-39318Y57072D01*
X-39234Y56871D01*
X-39121Y56686D01*
X-38980Y56520D01*
X-38814Y56379D01*
X-38629Y56266D01*
X-38428Y56182D01*
X-38217Y56132D01*
X-38000Y56115D01*
X-37783Y56132D01*
X-37572Y56182D01*
X-37371Y56266D01*
X-37186Y56379D01*
X-37020Y56520D01*
X-36879Y56686D01*
X-36766Y56871D01*
X-36682Y57072D01*
X-36632Y57283D01*
X-36615Y57500D01*
X-36632Y57717D01*
X-36682Y57928D01*
X-36766Y58129D01*
X-36879Y58314D01*
X-37020Y58480D01*
X-37186Y58621D01*
X-37371Y58734D01*
X-37572Y58818D01*
X-37707Y58850D01*
X-37701Y58900D01*
X-36500D01*
Y40200D01*
D02*
G37*
%LPC*%
G36*
X-49520Y51883D02*
Y51620D01*
X-49257D01*
X-49291Y51702D01*
X-49355Y51785D01*
X-49438Y51849D01*
X-49520Y51883D01*
D02*
G37*
G36*
X-49760D02*
X-49842Y51849D01*
X-49925Y51785D01*
X-49989Y51702D01*
X-50023Y51620D01*
X-49760D01*
Y51883D01*
D02*
G37*
G36*
X-49257Y51380D02*
X-49520D01*
Y51117D01*
X-49438Y51151D01*
X-49355Y51215D01*
X-49291Y51298D01*
X-49257Y51380D01*
D02*
G37*
G36*
X-38147Y52280D02*
X-38410D01*
Y52017D01*
X-38329Y52051D01*
X-38245Y52115D01*
X-38181Y52198D01*
X-38147Y52280D01*
D02*
G37*
G36*
X-38650D02*
X-38914D01*
X-38880Y52198D01*
X-38816Y52115D01*
X-38732Y52051D01*
X-38650Y52017D01*
Y52280D01*
D02*
G37*
G36*
X-49640Y55004D02*
X-49771Y54987D01*
X-49892Y54937D01*
X-49997Y54857D01*
X-50077Y54752D01*
X-50127Y54631D01*
X-50144Y54500D01*
X-50127Y54369D01*
X-50077Y54248D01*
X-49997Y54143D01*
X-49892Y54063D01*
X-49805Y54027D01*
Y53973D01*
X-49892Y53937D01*
X-49997Y53857D01*
X-50077Y53752D01*
X-50127Y53631D01*
X-50144Y53500D01*
X-50127Y53369D01*
X-50077Y53248D01*
X-49997Y53143D01*
X-49892Y53063D01*
X-49805Y53027D01*
Y52973D01*
X-49892Y52937D01*
X-49997Y52857D01*
X-50077Y52752D01*
X-50127Y52631D01*
X-50144Y52500D01*
X-50127Y52369D01*
X-50077Y52248D01*
X-49997Y52143D01*
X-49892Y52063D01*
X-49771Y52013D01*
X-49640Y51996D01*
X-49509Y52013D01*
X-49388Y52063D01*
X-49283Y52143D01*
X-49203Y52248D01*
X-49153Y52369D01*
X-49136Y52500D01*
X-49153Y52631D01*
X-49203Y52752D01*
X-49283Y52857D01*
X-49388Y52937D01*
X-49475Y52973D01*
Y53027D01*
X-49388Y53063D01*
X-49283Y53143D01*
X-49203Y53248D01*
X-49153Y53369D01*
X-49136Y53500D01*
X-49153Y53631D01*
X-49203Y53752D01*
X-49283Y53857D01*
X-49388Y53937D01*
X-49475Y53973D01*
Y54027D01*
X-49388Y54063D01*
X-49283Y54143D01*
X-49203Y54248D01*
X-49153Y54369D01*
X-49136Y54500D01*
X-49153Y54631D01*
X-49203Y54752D01*
X-49283Y54857D01*
X-49388Y54937D01*
X-49509Y54987D01*
X-49640Y55004D01*
D02*
G37*
G36*
X-49760Y51380D02*
X-50023D01*
X-49989Y51298D01*
X-49925Y51215D01*
X-49842Y51151D01*
X-49760Y51117D01*
Y51380D01*
D02*
G37*
G36*
X-39190Y45950D02*
X-39314Y45933D01*
X-39430Y45885D01*
X-39529Y45809D01*
X-39605Y45710D01*
X-39653Y45594D01*
X-39670Y45470D01*
X-39653Y45346D01*
X-39605Y45230D01*
X-39529Y45131D01*
X-39430Y45055D01*
X-39314Y45007D01*
X-39190Y44990D01*
X-39066Y45007D01*
X-38950Y45055D01*
X-38851Y45131D01*
X-38775Y45230D01*
X-38727Y45346D01*
X-38710Y45470D01*
X-38727Y45594D01*
X-38775Y45710D01*
X-38851Y45809D01*
X-38950Y45885D01*
X-39066Y45933D01*
X-39190Y45950D01*
D02*
G37*
G36*
X-40900Y54739D02*
X-41007Y54725D01*
Y54725D01*
X-41040Y54721D01*
X-41170Y54667D01*
X-41281Y54581D01*
X-41367Y54470D01*
X-41421Y54340D01*
X-41439Y54200D01*
X-41421Y54060D01*
X-41367Y53930D01*
X-41281Y53819D01*
X-41170Y53733D01*
X-41150Y53725D01*
Y53675D01*
X-41170Y53667D01*
X-41281Y53581D01*
X-41367Y53470D01*
X-41421Y53340D01*
X-41439Y53200D01*
X-41421Y53060D01*
X-41367Y52930D01*
X-41281Y52819D01*
X-41170Y52733D01*
X-41150Y52725D01*
Y52675D01*
X-41170Y52667D01*
X-41281Y52581D01*
X-41367Y52470D01*
X-41421Y52340D01*
X-41439Y52200D01*
X-41421Y52060D01*
X-41367Y51930D01*
X-41281Y51819D01*
X-41170Y51733D01*
X-41150Y51725D01*
Y51675D01*
X-41170Y51667D01*
X-41281Y51581D01*
X-41367Y51470D01*
X-41421Y51340D01*
X-41439Y51200D01*
X-41421Y51060D01*
X-41367Y50930D01*
X-41281Y50819D01*
X-41170Y50733D01*
X-41150Y50725D01*
Y50675D01*
X-41170Y50667D01*
X-41281Y50581D01*
X-41367Y50470D01*
X-41421Y50340D01*
X-41439Y50200D01*
X-41421Y50060D01*
X-41367Y49930D01*
X-41281Y49819D01*
X-41170Y49733D01*
X-41150Y49725D01*
Y49675D01*
X-41170Y49667D01*
X-41281Y49581D01*
X-41367Y49470D01*
X-41421Y49340D01*
X-41439Y49200D01*
X-41421Y49060D01*
X-41367Y48930D01*
X-41281Y48819D01*
X-41170Y48733D01*
X-41150Y48725D01*
Y48675D01*
X-41170Y48667D01*
X-41281Y48581D01*
X-41367Y48470D01*
X-41421Y48340D01*
X-41439Y48200D01*
X-41421Y48060D01*
X-41367Y47930D01*
X-41281Y47819D01*
X-41170Y47733D01*
X-41150Y47725D01*
Y47675D01*
X-41170Y47667D01*
X-41281Y47581D01*
X-41367Y47470D01*
X-41421Y47340D01*
X-41439Y47200D01*
X-41421Y47060D01*
X-41367Y46930D01*
X-41281Y46819D01*
X-41170Y46733D01*
X-41150Y46725D01*
Y46675D01*
X-41170Y46667D01*
X-41281Y46581D01*
X-41367Y46470D01*
X-41421Y46340D01*
X-41439Y46200D01*
X-41421Y46060D01*
X-41367Y45930D01*
X-41281Y45819D01*
X-41170Y45733D01*
X-41150Y45725D01*
Y45675D01*
X-41170Y45667D01*
X-41281Y45581D01*
X-41367Y45470D01*
X-41421Y45340D01*
X-41439Y45200D01*
X-41421Y45060D01*
X-41367Y44930D01*
X-41281Y44819D01*
X-41170Y44733D01*
X-41150Y44725D01*
Y44675D01*
X-41170Y44667D01*
X-41281Y44581D01*
X-41367Y44470D01*
X-41421Y44340D01*
X-41439Y44200D01*
X-41421Y44060D01*
X-41367Y43930D01*
X-41281Y43819D01*
X-41170Y43733D01*
X-41150Y43725D01*
Y43675D01*
X-41170Y43667D01*
X-41281Y43581D01*
X-41367Y43470D01*
X-41421Y43340D01*
X-41439Y43200D01*
X-41421Y43060D01*
X-41367Y42930D01*
X-41281Y42819D01*
X-41170Y42733D01*
X-41150Y42725D01*
Y42675D01*
X-41170Y42667D01*
X-41281Y42581D01*
X-41367Y42470D01*
X-41421Y42340D01*
X-41439Y42200D01*
X-41421Y42060D01*
X-41367Y41930D01*
X-41281Y41819D01*
X-41170Y41733D01*
X-41040Y41679D01*
X-40900Y41661D01*
X-40760Y41679D01*
X-40630Y41733D01*
X-40519Y41819D01*
X-40433Y41930D01*
X-40379Y42060D01*
X-40361Y42200D01*
X-40379Y42340D01*
X-40433Y42470D01*
X-40519Y42581D01*
X-40630Y42667D01*
X-40650Y42675D01*
Y42725D01*
X-40630Y42733D01*
X-40519Y42819D01*
X-40433Y42930D01*
X-40379Y43060D01*
X-40361Y43200D01*
X-40379Y43340D01*
X-40433Y43470D01*
X-40519Y43581D01*
X-40630Y43667D01*
X-40650Y43675D01*
Y43725D01*
X-40630Y43733D01*
X-40519Y43819D01*
X-40433Y43930D01*
X-40379Y44060D01*
X-40361Y44200D01*
X-40379Y44340D01*
X-40433Y44470D01*
X-40519Y44581D01*
X-40630Y44667D01*
X-40650Y44675D01*
Y44725D01*
X-40630Y44733D01*
X-40519Y44819D01*
X-40433Y44930D01*
X-40379Y45060D01*
X-40361Y45200D01*
X-40379Y45340D01*
X-40433Y45470D01*
X-40519Y45581D01*
X-40630Y45667D01*
X-40650Y45675D01*
Y45725D01*
X-40630Y45733D01*
X-40519Y45819D01*
X-40433Y45930D01*
X-40379Y46060D01*
X-40361Y46200D01*
X-40379Y46340D01*
X-40433Y46470D01*
X-40519Y46581D01*
X-40630Y46667D01*
X-40650Y46675D01*
Y46725D01*
X-40630Y46733D01*
X-40519Y46819D01*
X-40433Y46930D01*
X-40379Y47060D01*
X-40361Y47200D01*
X-40379Y47340D01*
X-40433Y47470D01*
X-40519Y47581D01*
X-40630Y47667D01*
X-40650Y47675D01*
Y47725D01*
X-40630Y47733D01*
X-40519Y47819D01*
X-40433Y47930D01*
X-40379Y48060D01*
X-40361Y48200D01*
X-40379Y48340D01*
X-40433Y48470D01*
X-40519Y48581D01*
X-40630Y48667D01*
X-40650Y48675D01*
Y48725D01*
X-40630Y48733D01*
X-40519Y48819D01*
X-40433Y48930D01*
X-40379Y49060D01*
X-40361Y49200D01*
X-40379Y49340D01*
X-40433Y49470D01*
X-40519Y49581D01*
X-40630Y49667D01*
X-40650Y49675D01*
Y49725D01*
X-40630Y49733D01*
X-40519Y49819D01*
X-40433Y49930D01*
X-40379Y50060D01*
X-40361Y50200D01*
X-40379Y50340D01*
X-40433Y50470D01*
X-40519Y50581D01*
X-40630Y50667D01*
X-40650Y50675D01*
Y50725D01*
X-40630Y50733D01*
X-40519Y50819D01*
X-40433Y50930D01*
X-40379Y51060D01*
X-40361Y51200D01*
X-40379Y51340D01*
X-40433Y51470D01*
X-40519Y51581D01*
X-40630Y51667D01*
X-40650Y51675D01*
Y51725D01*
X-40630Y51733D01*
X-40519Y51819D01*
X-40433Y51930D01*
X-40379Y52060D01*
X-40361Y52200D01*
X-40379Y52340D01*
X-40433Y52470D01*
X-40519Y52581D01*
X-40630Y52667D01*
X-40650Y52675D01*
Y52725D01*
X-40630Y52733D01*
X-40519Y52819D01*
X-40433Y52930D01*
X-40379Y53060D01*
X-40361Y53200D01*
X-40379Y53340D01*
X-40433Y53470D01*
X-40519Y53581D01*
X-40630Y53667D01*
X-40650Y53675D01*
Y53725D01*
X-40630Y53733D01*
X-40519Y53819D01*
X-40433Y53930D01*
X-40379Y54060D01*
X-40361Y54200D01*
X-40379Y54340D01*
X-40433Y54470D01*
X-40519Y54581D01*
X-40630Y54667D01*
X-40760Y54721D01*
X-40793Y54725D01*
Y54725D01*
X-40900Y54739D01*
D02*
G37*
G36*
X-46900Y52739D02*
X-47007Y52725D01*
Y52725D01*
X-47040Y52721D01*
X-47170Y52667D01*
X-47281Y52581D01*
X-47367Y52470D01*
X-47421Y52340D01*
X-47439Y52200D01*
X-47421Y52060D01*
X-47367Y51930D01*
X-47281Y51819D01*
X-47170Y51733D01*
X-47150Y51725D01*
Y51675D01*
X-47170Y51667D01*
X-47281Y51581D01*
X-47367Y51470D01*
X-47421Y51340D01*
X-47439Y51200D01*
X-47421Y51060D01*
X-47367Y50930D01*
X-47281Y50819D01*
X-47170Y50733D01*
X-47150Y50725D01*
Y50675D01*
X-47170Y50667D01*
X-47281Y50581D01*
X-47367Y50470D01*
X-47421Y50340D01*
X-47439Y50200D01*
X-47421Y50060D01*
X-47367Y49930D01*
X-47281Y49819D01*
X-47170Y49733D01*
X-47150Y49725D01*
Y49675D01*
X-47170Y49667D01*
X-47281Y49581D01*
X-47367Y49470D01*
X-47421Y49340D01*
X-47439Y49200D01*
X-47421Y49060D01*
X-47367Y48930D01*
X-47281Y48819D01*
X-47170Y48733D01*
X-47150Y48725D01*
Y48675D01*
X-47170Y48667D01*
X-47281Y48581D01*
X-47367Y48470D01*
X-47421Y48340D01*
X-47439Y48200D01*
X-47421Y48060D01*
X-47367Y47930D01*
X-47281Y47819D01*
X-47170Y47733D01*
X-47150Y47725D01*
Y47675D01*
X-47170Y47667D01*
X-47281Y47581D01*
X-47367Y47470D01*
X-47421Y47340D01*
X-47439Y47200D01*
X-47421Y47060D01*
X-47367Y46930D01*
X-47281Y46819D01*
X-47170Y46733D01*
X-47150Y46725D01*
Y46675D01*
X-47170Y46667D01*
X-47281Y46581D01*
X-47367Y46470D01*
X-47421Y46340D01*
X-47439Y46200D01*
X-47421Y46060D01*
X-47367Y45930D01*
X-47281Y45819D01*
X-47170Y45733D01*
X-47150Y45725D01*
Y45675D01*
X-47170Y45667D01*
X-47281Y45581D01*
X-47367Y45470D01*
X-47421Y45340D01*
X-47439Y45200D01*
X-47421Y45060D01*
X-47367Y44930D01*
X-47281Y44819D01*
X-47170Y44733D01*
X-47150Y44725D01*
Y44675D01*
X-47170Y44667D01*
X-47281Y44581D01*
X-47367Y44470D01*
X-47421Y44340D01*
X-47439Y44200D01*
X-47421Y44060D01*
X-47367Y43930D01*
X-47281Y43819D01*
X-47170Y43733D01*
X-47150Y43725D01*
Y43675D01*
X-47170Y43667D01*
X-47281Y43581D01*
X-47367Y43470D01*
X-47421Y43340D01*
X-47439Y43200D01*
X-47421Y43060D01*
X-47367Y42930D01*
X-47281Y42819D01*
X-47170Y42733D01*
X-47150Y42725D01*
Y42675D01*
X-47170Y42667D01*
X-47281Y42581D01*
X-47367Y42470D01*
X-47421Y42340D01*
X-47439Y42200D01*
X-47421Y42060D01*
X-47367Y41930D01*
X-47281Y41819D01*
X-47170Y41733D01*
X-47040Y41679D01*
X-46900Y41661D01*
X-46760Y41679D01*
X-46630Y41733D01*
X-46519Y41819D01*
X-46433Y41930D01*
X-46379Y42060D01*
X-46361Y42200D01*
X-46379Y42340D01*
X-46433Y42470D01*
X-46519Y42581D01*
X-46630Y42667D01*
X-46650Y42675D01*
Y42725D01*
X-46630Y42733D01*
X-46519Y42819D01*
X-46433Y42930D01*
X-46379Y43060D01*
X-46361Y43200D01*
X-46379Y43340D01*
X-46433Y43470D01*
X-46519Y43581D01*
X-46630Y43667D01*
X-46650Y43675D01*
Y43725D01*
X-46630Y43733D01*
X-46519Y43819D01*
X-46433Y43930D01*
X-46379Y44060D01*
X-46361Y44200D01*
X-46379Y44340D01*
X-46433Y44470D01*
X-46519Y44581D01*
X-46630Y44667D01*
X-46650Y44675D01*
Y44725D01*
X-46630Y44733D01*
X-46519Y44819D01*
X-46433Y44930D01*
X-46379Y45060D01*
X-46361Y45200D01*
X-46379Y45340D01*
X-46433Y45470D01*
X-46519Y45581D01*
X-46630Y45667D01*
X-46650Y45675D01*
Y45725D01*
X-46630Y45733D01*
X-46519Y45819D01*
X-46433Y45930D01*
X-46379Y46060D01*
X-46361Y46200D01*
X-46379Y46340D01*
X-46433Y46470D01*
X-46519Y46581D01*
X-46630Y46667D01*
X-46650Y46675D01*
Y46725D01*
X-46630Y46733D01*
X-46519Y46819D01*
X-46433Y46930D01*
X-46379Y47060D01*
X-46361Y47200D01*
X-46379Y47340D01*
X-46433Y47470D01*
X-46519Y47581D01*
X-46630Y47667D01*
X-46650Y47675D01*
Y47725D01*
X-46630Y47733D01*
X-46519Y47819D01*
X-46433Y47930D01*
X-46379Y48060D01*
X-46361Y48200D01*
X-46379Y48340D01*
X-46433Y48470D01*
X-46519Y48581D01*
X-46630Y48667D01*
X-46650Y48675D01*
Y48725D01*
X-46630Y48733D01*
X-46519Y48819D01*
X-46433Y48930D01*
X-46379Y49060D01*
X-46361Y49200D01*
X-46379Y49340D01*
X-46433Y49470D01*
X-46519Y49581D01*
X-46630Y49667D01*
X-46650Y49675D01*
Y49725D01*
X-46630Y49733D01*
X-46519Y49819D01*
X-46433Y49930D01*
X-46379Y50060D01*
X-46361Y50200D01*
X-46379Y50340D01*
X-46433Y50470D01*
X-46519Y50581D01*
X-46630Y50667D01*
X-46650Y50675D01*
Y50725D01*
X-46630Y50733D01*
X-46519Y50819D01*
X-46433Y50930D01*
X-46379Y51060D01*
X-46361Y51200D01*
X-46379Y51340D01*
X-46433Y51470D01*
X-46519Y51581D01*
X-46630Y51667D01*
X-46650Y51675D01*
Y51725D01*
X-46630Y51733D01*
X-46519Y51819D01*
X-46433Y51930D01*
X-46379Y52060D01*
X-46361Y52200D01*
X-46379Y52340D01*
X-46433Y52470D01*
X-46519Y52581D01*
X-46630Y52667D01*
X-46760Y52721D01*
X-46793Y52725D01*
Y52725D01*
X-46900Y52739D01*
D02*
G37*
G36*
X-49670Y49690D02*
X-49794Y49673D01*
X-49910Y49625D01*
X-50009Y49549D01*
X-50085Y49450D01*
X-50133Y49334D01*
X-50150Y49210D01*
X-50133Y49086D01*
X-50085Y48970D01*
X-50009Y48871D01*
X-49910Y48795D01*
X-49794Y48747D01*
X-49670Y48730D01*
X-49546Y48747D01*
X-49430Y48795D01*
X-49331Y48871D01*
X-49255Y48970D01*
X-49207Y49086D01*
X-49190Y49210D01*
X-49207Y49334D01*
X-49255Y49450D01*
X-49331Y49549D01*
X-49430Y49625D01*
X-49546Y49673D01*
X-49670Y49690D01*
D02*
G37*
G36*
X-39190Y48950D02*
X-39314Y48933D01*
X-39430Y48885D01*
X-39529Y48809D01*
X-39605Y48710D01*
X-39653Y48594D01*
X-39670Y48470D01*
X-39653Y48346D01*
X-39605Y48230D01*
X-39529Y48131D01*
X-39430Y48055D01*
X-39314Y48007D01*
X-39190Y47990D01*
X-39066Y48007D01*
X-38950Y48055D01*
X-38851Y48131D01*
X-38775Y48230D01*
X-38727Y48346D01*
X-38710Y48470D01*
X-38727Y48594D01*
X-38775Y48710D01*
X-38851Y48809D01*
X-38950Y48885D01*
X-39066Y48933D01*
X-39190Y48950D01*
D02*
G37*
G36*
X-49670Y46690D02*
X-49794Y46673D01*
X-49910Y46625D01*
X-50009Y46549D01*
X-50085Y46450D01*
X-50133Y46334D01*
X-50150Y46210D01*
X-50133Y46086D01*
X-50085Y45970D01*
X-50009Y45871D01*
X-49910Y45795D01*
X-49794Y45747D01*
X-49670Y45730D01*
X-49546Y45747D01*
X-49430Y45795D01*
X-49331Y45871D01*
X-49255Y45970D01*
X-49207Y46086D01*
X-49190Y46210D01*
X-49207Y46334D01*
X-49255Y46450D01*
X-49331Y46549D01*
X-49430Y46625D01*
X-49546Y46673D01*
X-49670Y46690D01*
D02*
G37*
G36*
X-40479Y55080D02*
X-40780D01*
Y54779D01*
X-40681Y54820D01*
X-40590Y54890D01*
X-40520Y54981D01*
X-40479Y55080D01*
D02*
G37*
G36*
X-41020D02*
X-41321D01*
X-41280Y54981D01*
X-41210Y54890D01*
X-41119Y54820D01*
X-41020Y54779D01*
Y55080D01*
D02*
G37*
G36*
X-46900Y56739D02*
X-47040Y56721D01*
X-47170Y56667D01*
X-47281Y56581D01*
X-47367Y56470D01*
X-47421Y56340D01*
X-47439Y56200D01*
X-47421Y56060D01*
X-47367Y55930D01*
X-47281Y55819D01*
X-47170Y55733D01*
X-47150Y55725D01*
Y55675D01*
X-47170Y55667D01*
X-47281Y55581D01*
X-47367Y55470D01*
X-47421Y55340D01*
X-47439Y55200D01*
X-47421Y55060D01*
X-47367Y54930D01*
X-47281Y54819D01*
X-47170Y54733D01*
X-47150Y54725D01*
Y54675D01*
X-47170Y54667D01*
X-47281Y54581D01*
X-47367Y54470D01*
X-47421Y54340D01*
X-47439Y54200D01*
X-47421Y54060D01*
X-47367Y53930D01*
X-47281Y53819D01*
X-47170Y53733D01*
X-47040Y53679D01*
X-47007Y53675D01*
Y53675D01*
X-46900Y53661D01*
X-46793Y53675D01*
Y53675D01*
X-46760Y53679D01*
X-46630Y53733D01*
X-46519Y53819D01*
X-46433Y53930D01*
X-46379Y54060D01*
X-46361Y54200D01*
X-46379Y54340D01*
X-46433Y54470D01*
X-46519Y54581D01*
X-46630Y54667D01*
X-46650Y54675D01*
Y54725D01*
X-46630Y54733D01*
X-46519Y54819D01*
X-46433Y54930D01*
X-46379Y55060D01*
X-46361Y55200D01*
X-46379Y55340D01*
X-46433Y55470D01*
X-46519Y55581D01*
X-46630Y55667D01*
X-46650Y55675D01*
Y55725D01*
X-46630Y55733D01*
X-46519Y55819D01*
X-46433Y55930D01*
X-46379Y56060D01*
X-46361Y56200D01*
X-46379Y56340D01*
X-46433Y56470D01*
X-46519Y56581D01*
X-46630Y56667D01*
X-46760Y56721D01*
X-46900Y56739D01*
D02*
G37*
G36*
X-40900D02*
X-41040Y56721D01*
X-41170Y56667D01*
X-41281Y56581D01*
X-41367Y56470D01*
X-41421Y56340D01*
X-41439Y56200D01*
X-41421Y56060D01*
X-41367Y55930D01*
X-41281Y55819D01*
X-41170Y55733D01*
X-41040Y55679D01*
X-41007Y55675D01*
Y55675D01*
X-40900Y55661D01*
X-40793Y55675D01*
Y55675D01*
X-40760Y55679D01*
X-40630Y55733D01*
X-40519Y55819D01*
X-40433Y55930D01*
X-40379Y56060D01*
X-40361Y56200D01*
X-40379Y56340D01*
X-40433Y56470D01*
X-40519Y56581D01*
X-40630Y56667D01*
X-40760Y56721D01*
X-40900Y56739D01*
D02*
G37*
G36*
X-40780Y55621D02*
Y55320D01*
X-40479D01*
X-40520Y55419D01*
X-40590Y55510D01*
X-40681Y55580D01*
X-40780Y55621D01*
D02*
G37*
G36*
X-41020D02*
X-41119Y55580D01*
X-41210Y55510D01*
X-41280Y55419D01*
X-41321Y55320D01*
X-41020D01*
Y55621D01*
D02*
G37*
G36*
X-46780Y53621D02*
Y53320D01*
X-46479D01*
X-46520Y53419D01*
X-46590Y53510D01*
X-46681Y53580D01*
X-46780Y53621D01*
D02*
G37*
G36*
X-47020Y53080D02*
X-47321D01*
X-47280Y52981D01*
X-47210Y52890D01*
X-47119Y52820D01*
X-47020Y52779D01*
Y53080D01*
D02*
G37*
G36*
X-38410Y52783D02*
Y52520D01*
X-38147D01*
X-38181Y52602D01*
X-38245Y52685D01*
X-38329Y52749D01*
X-38410Y52783D01*
D02*
G37*
G36*
X-38650D02*
X-38732Y52749D01*
X-38816Y52685D01*
X-38880Y52602D01*
X-38914Y52520D01*
X-38650D01*
Y52783D01*
D02*
G37*
G36*
X-47020Y53621D02*
X-47119Y53580D01*
X-47210Y53510D01*
X-47280Y53419D01*
X-47321Y53320D01*
X-47020D01*
Y53621D01*
D02*
G37*
G36*
X-38530Y54904D02*
X-38661Y54887D01*
X-38782Y54837D01*
X-38887Y54757D01*
X-38967Y54652D01*
X-39017Y54531D01*
X-39035Y54400D01*
X-39017Y54269D01*
X-38967Y54148D01*
X-38887Y54043D01*
X-38782Y53963D01*
X-38695Y53927D01*
Y53873D01*
X-38782Y53837D01*
X-38887Y53757D01*
X-38967Y53652D01*
X-39017Y53531D01*
X-39035Y53400D01*
X-39017Y53269D01*
X-38967Y53148D01*
X-38887Y53043D01*
X-38782Y52963D01*
X-38661Y52913D01*
X-38530Y52896D01*
X-38400Y52913D01*
X-38278Y52963D01*
X-38174Y53043D01*
X-38094Y53148D01*
X-38043Y53269D01*
X-38026Y53400D01*
X-38043Y53531D01*
X-38094Y53652D01*
X-38174Y53757D01*
X-38278Y53837D01*
X-38366Y53873D01*
Y53927D01*
X-38278Y53963D01*
X-38174Y54043D01*
X-38094Y54148D01*
X-38043Y54269D01*
X-38026Y54400D01*
X-38043Y54531D01*
X-38094Y54652D01*
X-38174Y54757D01*
X-38278Y54837D01*
X-38400Y54887D01*
X-38530Y54904D01*
D02*
G37*
G36*
X-46479Y53080D02*
X-46780D01*
Y52779D01*
X-46681Y52820D01*
X-46590Y52890D01*
X-46520Y52981D01*
X-46479Y53080D01*
D02*
G37*
%LPD*%
G54D10*
X-49500Y41500D02*
D03*
X-38000D02*
D03*
Y57500D02*
D03*
X-49500D02*
D03*
G54D11*
X-46900Y56200D02*
D03*
X-40900D02*
D03*
X-46900Y55200D02*
D03*
Y54200D02*
D03*
Y50200D02*
D03*
Y53200D02*
D03*
Y52200D02*
D03*
Y51200D02*
D03*
Y49200D02*
D03*
Y48200D02*
D03*
Y47200D02*
D03*
Y46200D02*
D03*
Y45200D02*
D03*
Y44200D02*
D03*
Y43200D02*
D03*
Y42200D02*
D03*
X-40900D02*
D03*
Y43200D02*
D03*
Y44200D02*
D03*
Y45200D02*
D03*
Y46200D02*
D03*
Y47200D02*
D03*
Y48200D02*
D03*
Y49200D02*
D03*
Y50200D02*
D03*
Y51200D02*
D03*
Y52200D02*
D03*
Y53200D02*
D03*
Y54200D02*
D03*
Y55200D02*
D03*
G54D12*
X-49640Y51500D02*
D03*
Y52500D02*
D03*
Y53500D02*
D03*
Y54500D02*
D03*
X-38530Y52400D02*
D03*
Y53400D02*
D03*
Y54400D02*
D03*
G54D13*
X-49670Y49210D02*
D03*
Y46210D02*
D03*
X-39190Y45470D02*
D03*
Y48470D02*
D03*
M02*
